<svg id="visual" viewBox="0 0 900 600" width="900" height="600" xmlns="http://www.w3.org/2000/svg" xmlns:xlink="http://www.w3.org/1999/xlink" version="1.1"><rect x="0" y="0" width="900" height="600" fill="#114373"></rect><defs><linearGradient id="grad1_0" x1="33.3%" y1="0%" x2="100%" y2="100%"><stop offset="20%" stop-color="#b1c2da" stop-opacity="1"></stop><stop offset="80%" stop-color="#b1c2da" stop-opacity="1"></stop></linearGradient></defs><defs><linearGradient id="grad1_1" x1="33.3%" y1="0%" x2="100%" y2="100%"><stop offset="20%" stop-color="#b1c2da" stop-opacity="1"></stop><stop offset="80%" stop-color="#9bafcb" stop-opacity="1"></stop></linearGradient></defs><defs><linearGradient id="grad1_2" x1="33.3%" y1="0%" x2="100%" y2="100%"><stop offset="20%" stop-color="#859cbc" stop-opacity="1"></stop><stop offset="80%" stop-color="#9bafcb" stop-opacity="1"></stop></linearGradient></defs><defs><linearGradient id="grad1_3" x1="33.3%" y1="0%" x2="100%" y2="100%"><stop offset="20%" stop-color="#859cbc" stop-opacity="1"></stop><stop offset="80%" stop-color="#7089ad" stop-opacity="1"></stop></linearGradient></defs><defs><linearGradient id="grad1_4" x1="33.3%" y1="0%" x2="100%" y2="100%"><stop offset="20%" stop-color="#5b779e" stop-opacity="1"></stop><stop offset="80%" stop-color="#7089ad" stop-opacity="1"></stop></linearGradient></defs><defs><linearGradient id="grad1_5" x1="33.3%" y1="0%" x2="100%" y2="100%"><stop offset="20%" stop-color="#5b779e" stop-opacity="1"></stop><stop offset="80%" stop-color="#456590" stop-opacity="1"></stop></linearGradient></defs><defs><linearGradient id="grad1_6" x1="33.3%" y1="0%" x2="100%" y2="100%"><stop offset="20%" stop-color="#2e5481" stop-opacity="1"></stop><stop offset="80%" stop-color="#456590" stop-opacity="1"></stop></linearGradient></defs><defs><linearGradient id="grad1_7" x1="33.3%" y1="0%" x2="100%" y2="100%"><stop offset="20%" stop-color="#2e5481" stop-opacity="1"></stop><stop offset="80%" stop-color="#114373" stop-opacity="1"></stop></linearGradient></defs><defs><linearGradient id="grad2_0" x1="0%" y1="0%" x2="66.7%" y2="100%"><stop offset="20%" stop-color="#b1c2da" stop-opacity="1"></stop><stop offset="80%" stop-color="#b1c2da" stop-opacity="1"></stop></linearGradient></defs><defs><linearGradient id="grad2_1" x1="0%" y1="0%" x2="66.7%" y2="100%"><stop offset="20%" stop-color="#9bafcb" stop-opacity="1"></stop><stop offset="80%" stop-color="#b1c2da" stop-opacity="1"></stop></linearGradient></defs><defs><linearGradient id="grad2_2" x1="0%" y1="0%" x2="66.7%" y2="100%"><stop offset="20%" stop-color="#9bafcb" stop-opacity="1"></stop><stop offset="80%" stop-color="#859cbc" stop-opacity="1"></stop></linearGradient></defs><defs><linearGradient id="grad2_3" x1="0%" y1="0%" x2="66.7%" y2="100%"><stop offset="20%" stop-color="#7089ad" stop-opacity="1"></stop><stop offset="80%" stop-color="#859cbc" stop-opacity="1"></stop></linearGradient></defs><defs><linearGradient id="grad2_4" x1="0%" y1="0%" x2="66.7%" y2="100%"><stop offset="20%" stop-color="#7089ad" stop-opacity="1"></stop><stop offset="80%" stop-color="#5b779e" stop-opacity="1"></stop></linearGradient></defs><defs><linearGradient id="grad2_5" x1="0%" y1="0%" x2="66.7%" y2="100%"><stop offset="20%" stop-color="#456590" stop-opacity="1"></stop><stop offset="80%" stop-color="#5b779e" stop-opacity="1"></stop></linearGradient></defs><defs><linearGradient id="grad2_6" x1="0%" y1="0%" x2="66.7%" y2="100%"><stop offset="20%" stop-color="#456590" stop-opacity="1"></stop><stop offset="80%" stop-color="#2e5481" stop-opacity="1"></stop></linearGradient></defs><defs><linearGradient id="grad2_7" x1="0%" y1="0%" x2="66.7%" y2="100%"><stop offset="20%" stop-color="#114373" stop-opacity="1"></stop><stop offset="80%" stop-color="#2e5481" stop-opacity="1"></stop></linearGradient></defs><g transform="translate(900, 0)"><path d="M0 297.5C-25.9 292.2 -51.9 286.9 -73.8 275.3C-95.6 263.6 -113.4 245.6 -134.5 233C-155.6 220.3 -179.9 213 -198.7 198.7C-217.5 184.4 -230.7 162.9 -246 142C-261.2 121.1 -278.4 100.6 -287.3 77C-296.2 53.4 -296.8 26.7 -297.5 0L0 0Z" fill="#214b7a"></path><path d="M0 260.3C-22.7 255.7 -45.4 251.1 -64.5 240.9C-83.7 230.7 -99.3 214.9 -117.7 203.8C-136.1 192.8 -157.4 186.4 -173.9 173.9C-190.3 161.3 -201.9 142.6 -215.2 124.3C-228.5 105.9 -243.6 88 -251.4 67.4C-259.2 46.7 -259.7 23.4 -260.3 0L0 0Z" fill="#3a5c88"></path><path d="M0 223.1C-19.5 219.1 -38.9 215.2 -55.3 206.5C-71.7 197.7 -85.1 184.2 -100.9 174.7C-116.7 165.2 -134.9 159.8 -149 149C-163.1 138.3 -173 122.2 -184.5 106.5C-195.9 90.8 -208.8 75.4 -215.5 57.7C-222.2 40 -222.6 20 -223.1 0L0 0Z" fill="#506e97"></path><path d="M0 185.9C-16.2 182.6 -32.4 179.3 -46.1 172.1C-59.8 164.8 -70.9 153.5 -84.1 145.6C-97.2 137.7 -112.4 133.1 -124.2 124.2C-135.9 115.2 -144.2 101.8 -153.7 88.8C-163.2 75.7 -174 62.9 -179.6 48.1C-185.1 33.4 -185.5 16.7 -185.9 0L0 0Z" fill="#6580a5"></path><path d="M0 148.7C-13 146.1 -25.9 143.5 -36.9 137.6C-47.8 131.8 -56.7 122.8 -67.2 116.5C-77.8 110.2 -90 106.5 -99.3 99.3C-108.7 92.2 -115.4 81.5 -123 71C-130.6 60.5 -139.2 50.3 -143.7 38.5C-148.1 26.7 -148.4 13.3 -148.7 0L0 0Z" fill="#7b92b4"></path><path d="M0 111.5C-9.7 109.6 -19.5 107.6 -27.7 103.2C-35.9 98.9 -42.5 92.1 -50.4 87.4C-58.3 82.6 -67.5 79.9 -74.5 74.5C-81.6 69.1 -86.5 61.1 -92.2 53.3C-97.9 45.4 -104.4 37.7 -107.7 28.9C-111.1 20 -111.3 10 -111.5 0L0 0Z" fill="#90a5c3"></path><path d="M0 74.4C-6.5 73 -13 71.7 -18.4 68.8C-23.9 65.9 -28.4 61.4 -33.6 58.2C-38.9 55.1 -45 53.3 -49.7 49.7C-54.4 46.1 -57.7 40.7 -61.5 35.5C-65.3 30.3 -69.6 25.1 -71.8 19.2C-74.1 13.3 -74.2 6.7 -74.4 0L0 0Z" fill="#a6b8d2"></path><path d="M0 37.2C-3.2 36.5 -6.5 35.9 -9.2 34.4C-12 33 -14.2 30.7 -16.8 29.1C-19.4 27.5 -22.5 26.6 -24.8 24.8C-27.2 23 -28.8 20.4 -30.7 17.8C-32.6 15.1 -34.8 12.6 -35.9 9.6C-37 6.7 -37.1 3.3 -37.2 0L0 0Z" fill="#b1c2da"></path></g><g transform="translate(0, 600)"><path d="M0 -297.5C21.8 -280.5 43.6 -263.6 69.6 -259.8C95.6 -256.1 125.9 -265.5 148.7 -257.6C171.6 -249.7 187 -224.5 202.9 -202.9C218.9 -181.3 235.4 -163.3 246 -142C256.5 -120.7 260.9 -96.2 268.5 -72C276.1 -47.7 286.8 -23.9 297.5 0L0 0Z" fill="#214b7a"></path><path d="M0 -260.3C19.1 -245.5 38.1 -230.6 60.9 -227.4C83.7 -224.1 110.2 -232.3 130.1 -225.4C150.1 -218.5 163.6 -196.5 177.6 -177.6C191.5 -158.7 206 -142.9 215.2 -124.3C224.4 -105.6 228.3 -84.1 235 -63C241.6 -41.8 250.9 -20.9 260.3 0L0 0Z" fill="#3a5c88"></path><path d="M0 -223.1C16.3 -210.4 32.7 -197.7 52.2 -194.9C71.7 -192.1 94.4 -199.1 111.5 -193.2C128.7 -187.3 140.2 -168.4 152.2 -152.2C164.2 -136 176.6 -122.5 184.5 -106.5C192.3 -90.5 195.7 -72.1 201.4 -54C207.1 -35.8 215.1 -17.9 223.1 0L0 0Z" fill="#506e97"></path><path d="M0 -185.9C13.6 -175.3 27.2 -164.7 43.5 -162.4C59.8 -160 78.7 -165.9 93 -161C107.2 -156.1 116.9 -140.3 126.8 -126.8C136.8 -113.3 147.2 -102.1 153.7 -88.8C160.3 -75.4 163.1 -60.1 167.8 -45C172.6 -29.8 179.2 -14.9 185.9 0L0 0Z" fill="#6580a5"></path><path d="M0 -148.7C10.9 -140.3 21.8 -131.8 34.8 -129.9C47.8 -128 62.9 -132.7 74.4 -128.8C85.8 -124.9 93.5 -112.3 101.5 -101.5C109.5 -90.7 117.7 -81.6 123 -71C128.2 -60.4 130.5 -48.1 134.3 -36C138.1 -23.9 143.4 -11.9 148.7 0L0 0Z" fill="#7b92b4"></path><path d="M0 -111.5C8.2 -105.2 16.3 -98.8 26.1 -97.4C35.9 -96 47.2 -99.6 55.8 -96.6C64.3 -93.6 70.1 -84.2 76.1 -76.1C82.1 -68 88.3 -61.2 92.2 -53.3C96.2 -45.3 97.9 -36.1 100.7 -27C103.5 -17.9 107.5 -9 111.5 0L0 0Z" fill="#90a5c3"></path><path d="M0 -74.4C5.4 -70.1 10.9 -65.9 17.4 -65C23.9 -64 31.5 -66.4 37.2 -64.4C42.9 -62.4 46.7 -56.1 50.7 -50.7C54.7 -45.3 58.9 -40.8 61.5 -35.5C64.1 -30.2 65.2 -24 67.1 -18C69 -11.9 71.7 -6 74.4 0L0 0Z" fill="#a6b8d2"></path><path d="M0 -37.2C2.7 -35.1 5.4 -32.9 8.7 -32.5C12 -32 15.7 -33.2 18.6 -32.2C21.4 -31.2 23.4 -28.1 25.4 -25.4C27.4 -22.7 29.4 -20.4 30.7 -17.8C32.1 -15.1 32.6 -12 33.6 -9C34.5 -6 35.8 -3 37.2 0L0 0Z" fill="#b1c2da"></path></g></svg>